<?xml version="1.0" encoding="utf-8"?>
<!-- Generator: Adobe Illustrator 25.0.0, SVG Export Plug-In . SVG Version: 6.00 Build 0)  -->
<svg version="1.1" id="Layer_1" xmlns="http://www.w3.org/2000/svg" xmlns:xlink="http://www.w3.org/1999/xlink" x="0px" y="0px"
	 viewBox="0 0 32 32" style="enable-background:new 0 0 32 32;" xml:space="preserve">
<style type="text/css">
	.st0{opacity:0.9;fill:#0091F8;enable-background:new    ;}
	.st1{fill:none;stroke:#FFFFFF;stroke-width:0.9917;stroke-linecap:round;stroke-miterlimit:10;}
	.st2{opacity:0.85;}
	.st3{clip-path:url(#SVGID_2_);fill:#93C3F8;}
	.st4{opacity:0.85;fill:#93BBF8;enable-background:new    ;}
	.st5{clip-path:url(#SVGID_4_);fill:#93C3F8;}
	.st6{clip-path:url(#SVGID_6_);fill:#93C3F8;}
	.st7{fill:#FFFFFF;}
	.st8{fill:#0024EF;}
	.st9{fill:#0069EF;}
</style>
<g>
	<g>
		<ellipse transform="matrix(0.462 -0.8869 0.8869 0.462 6.5407 27.8573)" class="st0" cx="26.2" cy="8.5" rx="5.5" ry="2.4"/>
		<path class="st0" d="M28.6,4.1L28.6,4.1c-0.1-0.1-0.2-0.2-0.1-0.3l1.9-3.6C30.5,0,30.6,0,30.7,0l0,0c0.1,0.1,0.2,0.2,0.1,0.3
			l-1.9,3.6C28.9,4.1,28.8,4.1,28.6,4.1z"/>
		<path class="st1" d="M28.4,5.7c0,1.1-0.4,2.2-1.1,3"/>
		<g class="st2">
			<g>
				<defs>
					<ellipse id="SVGID_1_" transform="matrix(0.462 -0.8869 0.8869 0.462 6.5407 27.8573)" cx="26.2" cy="8.5" rx="5.5" ry="2.4"/>
				</defs>
				<clipPath id="SVGID_2_">
					<use xlink:href="#SVGID_1_"  style="overflow:visible;"/>
				</clipPath>
				<path class="st3" d="M25.2,12.3c0.6-0.1,1-0.4,1.6-0.8c0.1-0.1,0.3-0.2,0.4-0.2c0.4,0,0.6,0.4,0.5,0.7c-0.3,1.8-3.3,1.9-4.6,1.5
					c-0.5-0.1-1.2-0.5-1-1.1c0.2-0.8,1.4-0.4,1.9-0.2C24.6,12.3,24.9,12.3,25.2,12.3z"/>
			</g>
		</g>
		<ellipse transform="matrix(0.3794 -0.9252 0.9252 0.3794 -11.3046 20.0641)" class="st4" cx="9.3" cy="18.5" rx="6" ry="3.2"/>
		<ellipse transform="matrix(0.8694 -0.4941 0.4941 0.8694 -6.7654 14.0618)" class="st4" cx="23.2" cy="19.8" rx="3.2" ry="6"/>
		
			<ellipse transform="matrix(2.629879e-02 -0.9997 0.9997 2.629879e-02 2.5355 33.2671)" class="st0" cx="18.3" cy="15.3" rx="3.7" ry="7.3"/>
		<ellipse transform="matrix(0.8694 -0.4941 0.4941 0.8694 -5.9812 15.8704)" class="st0" cx="27" cy="19.3" rx="3.2" ry="6"/>
		<g class="st2">
			<g>
				<defs>
					
						<ellipse id="SVGID_3_" transform="matrix(2.629879e-02 -0.9997 0.9997 2.629879e-02 2.5355 33.2671)" cx="18.3" cy="15.3" rx="3.7" ry="7.3"/>
				</defs>
				<clipPath id="SVGID_4_">
					<use xlink:href="#SVGID_3_"  style="overflow:visible;"/>
				</clipPath>
				<path class="st5" d="M17.7,17c-0.1-0.7-0.4-1.4-0.8-2c-0.4-0.6-0.9-0.7-1.4-1.2c-0.7-0.8-0.3-2.3-1.5-2.7
					c-1.6-0.5-2.7,2.1-2.9,3.8c-0.1,0.6-0.1,1.3,0.1,1.9s0.4,1.2,0.8,1.5c0.4,0.3,1,0.2,1.5,0c0.2,0.7,0.7,1.4,1.2,1.8
					c1,0.8,2.6,0.3,3-0.9C17.9,18.4,17.9,17.7,17.7,17z"/>
			</g>
		</g>
		<ellipse transform="matrix(0.3794 -0.9252 0.9252 0.3794 -10.662 24.172)" class="st0" cx="12.7" cy="20" rx="6" ry="3.2"/>
		<path class="st0" d="M8.6,7.7c1.6-0.9,3.9,0.8,5.2,3.1c1,1.7,1.3,4.2-0.3,5.2s-3.6-0.4-4.7-2.2C7.4,11.5,7,8.7,8.6,7.7z"/>
		<g class="st2">
			<g>
				<defs>
					<path id="SVGID_5_" d="M8.6,7.7c1.6-0.9,3.8,0.6,5,2.7c0.9,1.6,1.1,3.9-0.5,4.9s-3.5-0.2-4.5-1.9C7.3,11.3,7,8.7,8.6,7.7z"/>
				</defs>
				<clipPath id="SVGID_6_">
					<use xlink:href="#SVGID_5_"  style="overflow:visible;"/>
				</clipPath>
				<path class="st6" d="M13.1,10.4c0.1-0.3-0.1-0.7-0.3-1C11,7,7.1,8.9,6.4,11.3c-0.2,0.6-0.2,1.2,0.2,1.6c0.4,0.4,1.3,0.4,1.9,0.3
					c1-0.1,1.8-0.7,2.4-1.4c0.5-0.6,0.6-0.9,1-1C12.5,10.7,13,10.9,13.1,10.4z"/>
			</g>
		</g>
		<path class="st4" d="M8.7,8.4c-1.7,0.2-2.9-2-3.1-4.1C5.4,2.5,6.2,0.6,8,0.4s2.8,1.5,3,3.3C11.2,5.9,10.4,8.2,8.7,8.4z"/>
		<path class="st0" d="M1,6.8c0.8-2,3.9-2,6.5-0.9c2,0.8,3.7,2.9,2.9,4.8S7,12.9,4.9,12C2.3,10.9,0.2,8.8,1,6.8z"/>
		<path class="st0" d="M0.2,7L0.2,7C0,7,0,6.8,0.1,6.6l0.4-0.8c0.1-0.2,0.3-0.2,0.4-0.1l0,0C1,5.8,1.1,6,1,6.1L0.6,6.9
			C0.5,7.1,0.3,7.1,0.2,7z"/>
		<path class="st0" d="M9.9,9.4c-2-0.5-2.5-3.4-1.8-6c0.5-1.9,2.2-3.8,4.3-3.3s2.6,2.9,2,5C13.7,7.6,11.9,9.9,9.9,9.4z"/>
		<path class="st1" d="M12.7,11.6c0.7,0.7,0.9,1.2,1,2.2"/>
		<path class="st1" d="M23.3,14.5c-1-0.8-2.3-1.3-3.6-1.2"/>
		<path class="st1" d="M14.7,16.4c0.7,1.1,0.4,2.6-0.5,3.8"/>
		<path class="st1" d="M25.4,16c1.3-0.1,2.5,0.8,3.2,2.2"/>
		<circle class="st7" cx="7.3" cy="8.7" r="1"/>
		<path class="st1" d="M13,2c0.2,0.2,0.3,0.6,0.3,0.9c0.1,1-0.1,2-0.7,2.8"/>
	</g>
	<g>
		<g>
			<path class="st8" d="M1.9,31.1v-1.6l-1.2-1.9c-0.1-0.2-0.2-0.3-0.2-0.4s-0.1-0.2-0.1-0.3c0-0.1,0.1-0.2,0.1-0.3s0.2-0.1,0.3-0.1
				s0.2,0,0.3,0.1c0.1,0.1,0.2,0.2,0.3,0.5l0.9,1.6l1-1.6c0.1-0.1,0.1-0.2,0.2-0.2c0-0.1,0.1-0.1,0.1-0.2c0-0.1,0.1-0.1,0.2-0.1
				c0.1,0,0.1,0,0.2,0c0.1,0,0.2,0,0.3,0.1c0.1,0.1,0.1,0.2,0.1,0.3c0,0.1,0,0.2-0.1,0.3c0,0.1-0.1,0.2-0.2,0.4l-1.3,2v1.6
				c0,0.2,0,0.4-0.2,0.5c-0.1,0.1-0.2,0.2-0.4,0.2c-0.2,0-0.3,0-0.4-0.2C1.9,31.4,1.9,31.3,1.9,31.1z"/>
			<path class="st9" d="M8.4,27.3H6.1v1.3h2.1c0.2,0,0.3,0,0.4,0.1s0.1,0.2,0.1,0.3s0,0.2-0.1,0.3c-0.1,0.1-0.2,0.1-0.4,0.1H6.1v1.5
				h2.4c0.2,0,0.3,0,0.4,0.1C8.9,31,9,31.1,9,31.2c0,0.1,0,0.2-0.1,0.3s-0.2,0.1-0.4,0.1H5.7c-0.2,0-0.4,0-0.5-0.1S5.1,31.2,5.1,31
				v-3.9c0-0.1,0-0.3,0.1-0.4s0.1-0.2,0.2-0.2c0.1,0,0.2-0.1,0.4-0.1h2.7c0.2,0,0.3,0,0.4,0.1s0.1,0.2,0.1,0.3s0,0.2-0.1,0.3
				S8.6,27.3,8.4,27.3z"/>
			<path class="st8" d="M13.5,31.6H12c-0.2,0-0.4,0-0.5-0.1s-0.1-0.3-0.1-0.5v-3.9c0-0.2,0.1-0.4,0.1-0.5c0.1-0.1,0.3-0.1,0.5-0.1
				h1.6c0.2,0,0.4,0,0.6,0c0.2,0,0.3,0.1,0.5,0.2c0.1,0.1,0.2,0.2,0.3,0.3s0.2,0.2,0.2,0.4c0.1,0.1,0.1,0.3,0.1,0.4
				c0,0.5-0.2,0.9-0.8,1.1c0.7,0.2,1,0.6,1,1.2c0,0.3-0.1,0.5-0.2,0.8c-0.1,0.2-0.3,0.4-0.6,0.5c-0.1,0.1-0.3,0.1-0.5,0.1
				C14,31.6,13.8,31.6,13.5,31.6z M12.4,27.3v1.3h0.9c0.3,0,0.4,0,0.6-0.1s0.2-0.1,0.3-0.3c0.1-0.1,0.1-0.2,0.1-0.3
				c0-0.3-0.1-0.4-0.3-0.5s-0.5-0.1-0.8-0.1H12.4z M13.5,29.3h-1.1v1.5h1.1c0.7,0,1-0.2,1-0.8c0-0.3-0.1-0.5-0.3-0.6
				C14.1,29.4,13.8,29.3,13.5,29.3z"/>
			<path class="st9" d="M18.6,26.4c0.5,0,1,0.1,1.4,0.3c0.4,0.2,0.7,0.5,0.9,0.9c0.2,0.4,0.3,0.9,0.3,1.4c0,0.4,0,0.8-0.2,1.1
				s-0.3,0.6-0.5,0.8c-0.2,0.2-0.5,0.4-0.8,0.5c-0.3,0.1-0.7,0.2-1.1,0.2s-0.8-0.1-1.1-0.2c-0.3-0.1-0.6-0.3-0.8-0.5
				c-0.2-0.2-0.4-0.5-0.5-0.9c-0.1-0.3-0.2-0.7-0.2-1.1c0-0.4,0.1-0.8,0.2-1.1c0.1-0.3,0.3-0.6,0.5-0.8s0.5-0.4,0.8-0.5
				C17.9,26.5,18.2,26.4,18.6,26.4z M20.1,29c0-0.4-0.1-0.7-0.2-1c-0.1-0.3-0.3-0.5-0.5-0.6c-0.2-0.1-0.5-0.2-0.8-0.2
				c-0.2,0-0.4,0-0.6,0.1s-0.3,0.2-0.5,0.3c-0.1,0.1-0.2,0.3-0.3,0.6s-0.1,0.5-0.1,0.8s0,0.6,0.1,0.8c0.1,0.2,0.2,0.4,0.3,0.6
				s0.3,0.3,0.5,0.4s0.4,0.1,0.6,0.1c0.3,0,0.5-0.1,0.7-0.2c0.2-0.1,0.4-0.3,0.5-0.6C20,29.8,20.1,29.4,20.1,29z"/>
			<path class="st9" d="M24.1,26.4c0.5,0,1,0.1,1.4,0.3c0.4,0.2,0.7,0.5,0.9,0.9c0.2,0.4,0.3,0.9,0.3,1.4c0,0.4,0,0.8-0.2,1.1
				s-0.3,0.6-0.5,0.8c-0.2,0.2-0.5,0.4-0.8,0.5c-0.3,0.1-0.7,0.2-1.1,0.2s-0.8-0.1-1.1-0.2c-0.3-0.1-0.6-0.3-0.8-0.5
				c-0.2-0.2-0.4-0.5-0.5-0.9s-0.2-0.7-0.2-1.1c0-0.4,0.1-0.8,0.2-1.1c0.1-0.3,0.3-0.6,0.5-0.8c0.2-0.2,0.5-0.4,0.8-0.5
				C23.4,26.5,23.7,26.4,24.1,26.4z M25.6,29c0-0.4-0.1-0.7-0.2-1c-0.1-0.3-0.3-0.5-0.5-0.6c-0.2-0.1-0.5-0.2-0.8-0.2
				c-0.2,0-0.4,0-0.6,0.1s-0.3,0.2-0.5,0.3s-0.2,0.3-0.3,0.6s-0.1,0.5-0.1,0.8s0,0.6,0.1,0.8c0.1,0.2,0.2,0.4,0.3,0.6
				c0.1,0.2,0.3,0.3,0.5,0.4c0.2,0.1,0.4,0.1,0.6,0.1c0.3,0,0.5-0.1,0.7-0.2c0.2-0.1,0.4-0.3,0.5-0.6C25.5,29.8,25.6,29.4,25.6,29z"
				/>
			<path class="st9" d="M28.8,27l2,3v-3c0-0.2,0-0.4,0.1-0.5c0.1-0.1,0.2-0.1,0.3-0.1c0.1,0,0.3,0,0.4,0.1s0.1,0.2,0.1,0.5v4
				c0,0.5-0.2,0.7-0.5,0.7c-0.1,0-0.2,0-0.2,0s-0.1-0.1-0.2-0.1c-0.1-0.1-0.1-0.1-0.2-0.2c-0.1-0.1-0.1-0.2-0.2-0.2l-1.9-3v3
				c0,0.2,0,0.3-0.1,0.4c-0.1,0.1-0.2,0.1-0.4,0.1c-0.1,0-0.3,0-0.4-0.1s-0.1-0.2-0.1-0.4v-4c0-0.2,0-0.3,0.1-0.4
				c0-0.1,0.1-0.2,0.2-0.3c0.1-0.1,0.2-0.1,0.3-0.1c0.1,0,0.2,0,0.2,0c0.1,0,0.1,0.1,0.2,0.1c0,0,0.1,0.1,0.1,0.2S28.7,26.9,28.8,27
				z"/>
		</g>
	</g>
</g>
</svg>
