<?xml version="1.0" encoding="utf-8"?>
<!-- Generator: Adobe Illustrator 25.0.0, SVG Export Plug-In . SVG Version: 6.00 Build 0)  -->
<svg version="1.1" id="레이어_1" xmlns="http://www.w3.org/2000/svg" xmlns:xlink="http://www.w3.org/1999/xlink" x="0px"
	 y="0px" viewBox="0 0 166.06 48.79" enable-background="new 0 0 166.06 48.79" xml:space="preserve">
<g>
	<path fill-rule="evenodd" clip-rule="evenodd" fill="#FFDC00" d="M4.91,43.88h24.22V4.91H4.91V43.88L4.91,43.88L4.91,43.88z M0,0
		h34.05v48.79H0V0L0,0L0,0z"/>
	<path fill-rule="evenodd" clip-rule="evenodd" d="M56.67,21.89h-2.11c-2.77-3.91-5.51-7.79-8.25-12.18h-0.02v12.18h-2.33V4.91h2.11
		c2.77,3.88,5.51,7.74,8.22,12.1h0.05V4.91h2.33V21.89L56.67,21.89L56.67,21.89z"/>
	<path fill-rule="evenodd" clip-rule="evenodd" d="M63.31,4.91l-5.87,16.98h2.52l1.48-4.63h5.12l1.33,4.63h3.25L65.74,4.91H63.31
		L63.31,4.91L63.31,4.91z M62.2,15.17c0.68-2.23,1.36-4.29,1.96-6.92h0.05c0.68,2.62,1.29,4.68,1.92,6.92H62.2L62.2,15.17
		L62.2,15.17z"/>
	<polygon fill-rule="evenodd" clip-rule="evenodd" points="73.89,21.89 73.89,7.18 69.43,7.18 69.43,4.91 81.26,4.91 81.26,7.18 
		76.8,7.18 76.8,21.89 73.89,21.89 73.89,21.89 	"/>
	<polygon fill-rule="evenodd" clip-rule="evenodd" points="82.21,4.91 85.1,4.91 85.1,21.89 82.21,21.89 82.21,4.91 82.21,4.91 	"/>
	<path fill-rule="evenodd" clip-rule="evenodd" d="M94.08,22.18c4.44,0,7.2-3.95,7.2-9.03c0-4.75-3.05-8.54-7.2-8.54
		c-4.15,0-7.21,3.78-7.21,8.54C86.86,18.22,89.64,22.18,94.08,22.18L94.08,22.18L94.08,22.18z M94.08,19.75
		c-3.04,0-4.1-3.35-4.1-6.6c0-3.13,1.21-6.11,4.1-6.11c2.88,0,4.09,2.98,4.09,6.11C98.17,16.4,97.11,19.75,94.08,19.75L94.08,19.75
		L94.08,19.75z"/>
	<path fill-rule="evenodd" clip-rule="evenodd" d="M115.76,21.89h-2.11c-2.77-3.91-5.51-7.79-8.25-12.18h-0.02v12.18h-2.33V4.91
		h2.11c2.76,3.88,5.51,7.74,8.22,12.1h0.05V4.91h2.33V21.89L115.76,21.89L115.76,21.89z"/>
	<path fill-rule="evenodd" clip-rule="evenodd" d="M122.41,4.91l-5.87,16.98h2.53l1.48-4.63h5.12l1.33,4.63h3.25l-5.41-16.98H122.41
		L122.41,4.91L122.41,4.91z M121.29,15.17c0.68-2.23,1.35-4.29,1.97-6.92h0.05c0.68,2.62,1.28,4.68,1.91,6.92H121.29L121.29,15.17
		L121.29,15.17z"/>
	<polygon fill-rule="evenodd" clip-rule="evenodd" points="131.09,4.91 133.98,4.91 133.98,19.61 139.73,19.61 139.73,21.89 
		131.09,21.89 131.09,4.91 131.09,4.91 	"/>
	<path fill-rule="evenodd" clip-rule="evenodd" d="M54.88,36.09v7.01c-1.55,0.61-3.18,1.04-4.83,1.04c-5,0-8.15-3.88-8.15-8.88
		c0-4.64,3.15-8.68,8.25-8.68c1.57,0,3.15,0.59,4.12,1.31l-0.95,2.01c-0.78-0.48-1.99-0.89-3.1-0.89c-3.1,0-5.22,2.45-5.22,6.31
		c0,4.03,2.43,6.4,4.93,6.4c0.77,0,1.43-0.09,2.04-0.41v-5.22H54.88L54.88,36.09L54.88,36.09z"/>
	<polygon fill-rule="evenodd" clip-rule="evenodd" points="65.29,29.16 60.43,29.16 60.43,33.81 65.19,33.81 65.19,36.09 
		60.43,36.09 60.43,41.57 66.16,41.57 66.16,43.86 57.52,43.86 57.52,26.87 65.29,26.87 65.29,29.16 65.29,29.16 	"/>
	<path fill-rule="evenodd" clip-rule="evenodd" d="M74.26,44.15c4.44,0,7.2-3.95,7.2-9.02c0-4.75-3.05-8.54-7.2-8.54
		c-4.15,0-7.21,3.79-7.21,8.54C67.06,40.19,69.82,44.15,74.26,44.15L74.26,44.15L74.26,44.15z M74.26,41.72
		c-3.04,0-4.1-3.34-4.1-6.6c0-3.13,1.21-6.11,4.1-6.11c2.88,0,4.1,2.98,4.1,6.11C78.36,38.38,77.29,41.72,74.26,41.72L74.26,41.72
		L74.26,41.72z"/>
	<path fill-rule="evenodd" clip-rule="evenodd" d="M95.44,36.09v7.01c-1.55,0.61-3.18,1.04-4.83,1.04c-5,0-8.15-3.88-8.15-8.88
		c0-4.64,3.16-8.68,8.25-8.68c1.58,0,3.15,0.59,4.12,1.31l-0.95,2.01c-0.78-0.48-1.98-0.89-3.1-0.89c-3.11,0-5.22,2.45-5.22,6.31
		c0,4.03,2.43,6.4,4.93,6.4c0.78,0,1.43-0.09,2.04-0.41v-5.22H95.44L95.44,36.09L95.44,36.09z"/>
	<path fill-rule="evenodd" clip-rule="evenodd" d="M108.4,43.86l-3.43-7.03c1.87-0.99,2.94-3.01,2.94-5.05c0-3.3-2.02-4.9-5.27-4.9
		h-4.54v16.98h2.92v-6.4h1.31l2.74,6.4H108.4L108.4,43.86L108.4,43.86z M101.02,29.16h1.28c1.72,0,2.69,0.99,2.69,2.74
		c0,2.28-1.38,3.3-2.77,3.37c-0.29,0.03-0.97,0.05-1.21,0.08V29.16L101.02,29.16L101.02,29.16z"/>
	<path fill-rule="evenodd" clip-rule="evenodd" d="M114.31,26.87l-5.87,16.98h2.52l1.48-4.64h5.12l1.33,4.64h3.26l-5.41-16.98
		H114.31L114.31,26.87L114.31,26.87z M113.2,37.14c0.68-2.24,1.36-4.3,1.96-6.92h0.05c0.68,2.62,1.28,4.68,1.91,6.92H113.2
		L113.2,37.14L113.2,37.14z"/>
	<path fill-rule="evenodd" clip-rule="evenodd" d="M127.2,35.27c-0.3,0.03-1.01,0.05-1.22,0.07v-6.18h1.31
		c1.7,0,2.67,0.99,2.67,2.74C129.96,34.18,128.58,35.19,127.2,35.27L127.2,35.27L127.2,35.27z M127.6,26.87h-4.54v16.98h2.91v-6.4
		h1.31c3.47,0,5.58-2.82,5.58-5.68C132.87,28.47,130.86,26.87,127.6,26.87L127.6,26.87L127.6,26.87z"/>
	<polygon fill-rule="evenodd" clip-rule="evenodd" points="146.36,43.86 143.45,43.86 143.45,35.68 137.4,35.68 137.4,43.86 
		134.52,43.86 134.52,26.87 137.4,26.87 137.4,33.4 143.45,33.4 143.45,26.92 146.36,26.92 146.36,43.86 146.36,43.86 	"/>
	<polygon fill-rule="evenodd" clip-rule="evenodd" points="149.15,26.87 152.04,26.87 152.04,43.86 149.15,43.86 149.15,26.87 
		149.15,26.87 	"/>
	<path fill-rule="evenodd" clip-rule="evenodd" d="M165.13,29.96c-0.7-0.44-1.86-0.94-2.99-0.94c-2.96,0-5.12,2.45-5.12,6.31
		c0,4.03,2.38,6.4,5.19,6.4c1.12,0,2.16-0.37,2.91-0.85l0.8,2.11c-0.88,0.61-2.43,1.16-3.83,1.16c-5,0-8.15-3.88-8.15-8.88
		c0-4.64,3.13-8.68,8.2-8.68c1.51,0,2.91,0.63,3.91,1.31L165.13,29.96L165.13,29.96L165.13,29.96z"/>
</g>
</svg>
