<?xml version="1.0" encoding="utf-8"?>
<!-- Generator: Adobe Illustrator 25.0.0, SVG Export Plug-In . SVG Version: 6.00 Build 0)  -->
<svg version="1.1" id="레이어_1" xmlns="http://www.w3.org/2000/svg" xmlns:xlink="http://www.w3.org/1999/xlink" x="0px"
	 y="0px" viewBox="0 0 198.04 48.79" enable-background="new 0 0 198.04 48.79" xml:space="preserve">
<g>
	<path fill-rule="evenodd" clip-rule="evenodd" fill="#E60020" d="M25.9,48.79C10.38,48.78,0,37.78,0,24.44
		C0,11.09,10.4-0.03,25.88,0h146.28c15.48-0.03,25.88,11.09,25.88,24.44c0,13.34-10.38,24.34-25.9,24.35H25.9L25.9,48.79z"/>
	<path fill-rule="evenodd" clip-rule="evenodd" fill="#FFFFFF" d="M25.95,6C13.66,6.02,6.11,14.24,6.11,24.4
		c0,10.16,7.5,18.44,19.84,18.4h146.14c12.34,0.05,19.84-8.24,19.84-18.4c0-10.16-7.55-18.38-19.84-18.4H25.95L25.95,6z"/>
	<polygon fill-rule="evenodd" clip-rule="evenodd" fill="#E60020" points="19.65,12.87 26.8,12.87 36.7,28.88 36.7,12.87 
		43.79,12.87 43.79,35.84 36.71,35.84 26.76,19.82 26.76,35.84 19.65,35.84 19.65,12.87 	"/>
	<polygon fill-rule="evenodd" clip-rule="evenodd" fill="#E60020" points="82.4,15.23 89.31,15.23 89.31,18.32 93.05,18.32 
		93.05,20.59 89.31,20.59 89.32,35.84 82.4,35.84 82.4,20.59 78.65,20.59 78.65,18.33 82.4,18.33 82.4,15.23 	"/>
	<polygon fill-rule="evenodd" clip-rule="evenodd" fill="#E60020" points="47.75,20.56 54.66,20.56 54.66,35.84 47.75,35.84 
		47.75,20.56 	"/>
	<polygon fill-rule="evenodd" clip-rule="evenodd" fill="#E60020" points="47.74,12.86 54.66,12.86 54.66,17.56 47.74,17.56 
		47.74,12.86 	"/>
	<path fill-rule="evenodd" clip-rule="evenodd" fill="#E60020" d="M171.56,28.08c0,0-0.01,2.31-0.01,3.23
		c0,2.43-1.44,3.44-2.82,3.44c-1.38,0-2.83-1.01-2.83-3.44c0-0.93,0.01-3.29,0.01-3.29s0-2.26,0-3.18c0-2.42,1.44-3.42,2.82-3.42
		c1.38,0,2.82,1,2.82,3.42c0,0.93,0,2.64,0.01,3.25V28.08L171.56,28.08L171.56,28.08z M168.78,19.52c-5.57,0-10.09,3.84-10.09,8.58
		c0,4.73,4.52,8.57,10.09,8.57c5.58,0,10.09-3.84,10.09-8.57C178.88,23.36,174.36,19.52,168.78,19.52L168.78,19.52z"/>
	<path fill-rule="evenodd" clip-rule="evenodd" fill="#E60020" d="M149.62,12.87h6.82v22.96h-6.83c0,0-0.01-0.74-0.01-0.88
		c-2.64,1.66-5.63,1.65-7.95,0.57c-0.62-0.29-4.72-2.26-4.72-7.57c0-4.03,3.81-8.43,8.78-8c1.64,0.15,2.8,0.74,3.91,1.36
		C149.62,17.79,149.62,12.87,149.62,12.87L149.62,12.87L149.62,12.87z M149.67,28.12c0,0,0-1.92,0-2.73c0-2.36-1.63-2.96-2.71-2.96
		c-1.1,0-2.71,0.6-2.71,2.96c0,0.78,0,2.72,0,2.72s0,1.9,0,2.71c0,2.36,1.61,2.98,2.71,2.98c1.08,0,2.71-0.62,2.71-2.98
		C149.67,29.85,149.67,28.12,149.67,28.12L149.67,28.12z"/>
	<path fill-rule="evenodd" clip-rule="evenodd" fill="#E60020" d="M70.83,19.86c2.58-0.07,7.82,1.62,7.78,7.67
		c-0.01,1.07,0,8.31,0,8.31h-6.86c0,0,0-9.07,0-10.03c0-1.33-1.27-2.81-3.15-2.81c-1.88,0-3.28,1.48-3.28,2.81
		c0,0.65,0.01,10.03,0.01,10.03h-6.86l0-15.27l6.86-0.01c0,0-0.01,1.23,0,1.6C66.64,20.9,68.54,19.93,70.83,19.86L70.83,19.86z"/>
	<path fill-rule="evenodd" clip-rule="evenodd" fill="#E60020" d="M126.96,19.86c2.58-0.07,7.82,1.62,7.78,7.67
		c-0.01,1.07-0.01,8.31-0.01,8.31h-6.86c0,0,0-9.07,0-10.03c0-1.33-1.27-2.81-3.15-2.81c-1.88,0-3.28,1.48-3.28,2.81
		c0,0.65,0.01,10.03,0.01,10.03h-6.86l0.01-15.27l6.85-0.01c0,0-0.01,1.23,0,1.6C122.77,20.9,124.67,19.93,126.96,19.86
		L126.96,19.86z"/>
	<path fill-rule="evenodd" clip-rule="evenodd" fill="#E60020" d="M99.48,25.89c-0.01-1.34,0.02-2.23,0.45-3
		c0.54-0.94,1.54-1.39,2.43-1.39h-0.01c0.9,0,1.89,0.45,2.43,1.39c0.44,0.77,0.46,1.66,0.45,3H99.48L99.48,25.89L99.48,25.89z
		 M105.22,30.49c0,0,0.01,0.07,0.01,0.93c0,2.8-1.84,3.42-2.85,3.42c-1.02,0-2.89-0.62-2.89-3.42c0-0.84,0.01-3.15,0.01-3.15
		s13.01,0,13.01,0c0-4.74-4.57-8.66-10.19-8.66c-5.62,0-10.17,3.84-10.17,8.57c0,4.74,4.56,8.58,10.17,8.58
		c4.66,0,8.59-2.66,9.8-6.27L105.22,30.49L105.22,30.49z"/>
	<path fill-rule="evenodd" clip-rule="evenodd" fill="#E60020" d="M179.35,18.33h-0.79V13.1h1.99c1.23,0,1.85,0.46,1.85,1.49
		c0,0.94-0.59,1.34-1.36,1.44l1.49,2.3h-0.88l-1.38-2.27h-0.91V18.33L179.35,18.33L179.35,18.33z M180.3,15.39
		c0.67,0,1.27-0.05,1.27-0.85c0-0.65-0.59-0.77-1.14-0.77h-1.08v1.62H180.3L180.3,15.39z"/>
	<path fill-rule="evenodd" clip-rule="evenodd" fill="#E60020" d="M175.71,15.7c0-2.6,2.11-4.52,4.61-4.52
		c2.47,0,4.58,1.92,4.58,4.52c0,2.63-2.11,4.55-4.58,4.55C177.82,20.25,175.71,18.33,175.71,15.7L175.71,15.7L175.71,15.7z
		 M180.31,19.5c2.05,0,3.67-1.61,3.67-3.79c0-2.14-1.61-3.77-3.67-3.77c-2.07,0-3.69,1.62-3.69,3.77
		C176.62,17.89,178.24,19.5,180.31,19.5L180.31,19.5z"/>
</g>
</svg>
