<?xml version="1.0" encoding="utf-8"?>
<!-- Generator: Adobe Illustrator 25.0.0, SVG Export Plug-In . SVG Version: 6.00 Build 0)  -->
<svg version="1.1" id="Layer_1" xmlns="http://www.w3.org/2000/svg" xmlns:xlink="http://www.w3.org/1999/xlink" x="0px" y="0px"
	 viewBox="0 0 38 38" enable-background="new 0 0 38 38" xml:space="preserve">
<path fill-rule="evenodd" clip-rule="evenodd" fill="#010101" d="M23.79,1.32L4.14,2.77C2.55,2.91,2,3.94,2,5.19v21.55
	c0,0.97,0.34,1.79,1.17,2.9l4.62,6.01c0.76,0.97,1.45,1.17,2.9,1.11l22.83-1.38c1.93-0.14,2.48-1.04,2.48-2.56V8.57
	c0-0.79-0.31-1.01-1.22-1.68l-6.43-4.53C26.83,1.25,26.21,1.11,23.79,1.32L23.79,1.32z M11.21,8.17C9.34,8.3,8.92,8.33,7.86,7.47
	L5.17,5.33C4.9,5.05,5.04,4.7,5.72,4.63l18.9-1.38c1.59-0.14,2.41,0.41,3.03,0.9l3.24,2.35c0.14,0.07,0.48,0.48,0.07,0.48
	L11.45,8.16L11.21,8.17L11.21,8.17z M9.03,32.61V12.03c0-0.9,0.28-1.31,1.1-1.38l22.41-1.31c0.76-0.07,1.1,0.41,1.1,1.31v20.44
	c0,0.9-0.14,1.66-1.38,1.73l-21.45,1.24C9.59,34.12,9.03,33.71,9.03,32.61L9.03,32.61z M30.21,13.13c0.14,0.62,0,1.24-0.62,1.31
	l-1.03,0.2v15.19c-0.9,0.48-1.72,0.76-2.41,0.76c-1.1,0-1.38-0.35-2.21-1.38l-6.76-10.64v10.29l2.14,0.48c0,0,0,1.24-1.73,1.24
	l-4.76,0.28c-0.14-0.28,0-0.97,0.48-1.1l1.24-0.34V15.82l-1.72-0.14c-0.14-0.62,0.21-1.52,1.17-1.59l5.1-0.34l7.03,10.77v-9.53
	l-1.79-0.21c-0.14-0.76,0.41-1.31,1.1-1.38L30.21,13.13L30.21,13.13z"/>
</svg>
